# xmcd
#
# Track frame offsets:
#	183
#	14738
#	31318
#	50408
#	69080
#	85558
#	99648
#	113338
#	127038
#	139953
#	157818
#	173190
#	187913
#
# Disc length: 2643 seconds
#
# Revision: 1
# Processed by: cddbd v1.5.2PL0 Copyright (c) Steve Scherf et al.
# Submitted via: EasyCDDAExtractor 11.5.3.1
#
DISCID=9e0a510d
DTITLE=Jodle Johnny - Johnny I En Nøddeskal
DYEAR=1990
DGENRE=Country
TTITLE0=Der er et smukt lille land
TTITLE1=Det er A'mar
TTITLE2=Den gamle landsbykirke
TTITLE3=Vort lille fristed
TTITLE4=Arbejdsløs
TTITLE5=Tænk dig om
TTITLE6=Ægte kærlighed er for evigt
TTITLE7=Madam blå valsen
TTITLE8=Ta' en dag af gangen
TTITLE9=Der var en , to, tre
TTITLE10=Tro kan flytte bjerge
TTITLE11=Man kan da ikke lade være med at jodle
TTITLE12=Ferievalsen
EXTD=
EXTT0=
EXTT1=
EXTT2=
EXTT3=
EXTT4=
EXTT5=
EXTT6=
EXTT7=
EXTT8=
EXTT9=
EXTT10=
EXTT11=
EXTT12=
PLAYORDER=
